<?xml version="1.0" encoding="utf-8"?>
<!-- Generator: Adobe Illustrator 27.5.0, SVG Export Plug-In . SVG Version: 6.00 Build 0)  -->
<svg version="1.1" id="bluedisk" xmlns="http://www.w3.org/2000/svg" xmlns:xlink="http://www.w3.org/1999/xlink" x="0px" y="0px"
	 viewBox="0 0 288 288" style="enable-background:new 0 0 288 288;" xml:space="preserve">
<style type="text/css">
	.st0{fill:#121A1B;}
	.st1{fill:#313133;}
	.st2{fill:#252427;}
	.st3{fill:#1E839B;}
	.st4{fill:#3EB6D8;}
	.st5{fill:#CACCCE;}
	.st6{fill:none;stroke:#121A1B;stroke-width:1.41;stroke-miterlimit:10;}



#bluedisk:hover #rings {
  animation-name: vibrate;
  animation-duration: 0.5s;
  animation-timing-function: linear;
  animation-iteration-count: infinite;
}

@keyframes vibrate {
  0% {
    transform: translate(0, 0);
  }
  50% {
    transform: translate(-2px, 2px); 
  }
  100% {
    transform: translate(0, 0);
  }
}

#bluedisk:hover #base,
#bluedisk:hover #base2 {
  animation-name: colorChange;
  animation-duration: 2s;
  animation-timing-function: ease-out;
  animation-fill-mode: forwards;
}

#bluedisk #base1 {
  animation-name: flicker;
  animation-duration: 0.5s;
  animation-timing-function: linear;
  animation-iteration-count: infinite;
}

@keyframes colorChange {
  0% {
    fill: #121A1B; /* Initial color */
  }
  50% {
    fill: #3EB6D8; /* Intermediate color */
  }
  100% {
    fill: #121A1B; /* Final color */
  }
}

@keyframes flicker {
  0% {
    opacity: 1;
  }
  50% {
    opacity: 0.5;
  }
  100% {
    opacity: 1;
  }
}



</style>
<path id="base" class="st0" d="M285.5,144c0,77.7-63.4,140.8-141.5,140.8
	c-78.1,0-141.5-63-141.5-140.8C2.5,66.3,65.9,3.2,144,3.2C222.1,3.2,285.5,66.3,285.5,144z"/>
<path id="base1" class="st1" d="M264.9,144c0,66.4-54.1,120.3-120.9,120.3
	S23.1,210.4,23.1,144S77.2,23.7,144,23.7S264.9,77.6,264.9,144z"/>
<path id="base2" class="st2" d="M236.7,144c0,50.9-41.5,92.2-92.7,92.2
	S51.3,194.9,51.3,144S92.8,51.8,144,51.8S236.7,93.1,236.7,144z"/>
<path id="cutshape" class="st3" d="M217.2,142.5c0,15.3-4.3,29.5-11.7,41.4
	c-6-18.4-31.4-32.3-61.8-32.3c-31.3,0-57.2,14.6-62.3,33.9c-8.1-12.3-12.8-27.1-12.8-43c0-15.5,4.4-29.9,12.1-42
	c2.6,21,29.8,37.4,62.9,37.4c32.1,0,58.7-15.5,62.6-35.5C213.2,114.1,217.2,127.8,217.2,142.5z"/>
<path id="ovals" class="st4" d="M207.7,104L207.7,104
	c-4,19.6-30.9,34.7-63.6,34.7c-33.7,0-61.3-16.1-63.9-36.6v0c13.4-20.5,36.7-34,63.1-34C170.6,68.1,194.5,82.5,207.7,104z
	 M144.2,152.1c-31.7,0-58.1,14.3-63.2,33.1c13.6,19.9,36.5,33,62.4,33c26.6,0,50.1-13.8,63.5-34.5
	C200.7,165.6,175,152.1,144.2,152.1z"/>
<path id="whitecircle" class="st5" d="M176.3,144c0,17.7-14.4,32.1-32.3,32.1
	s-32.3-14.4-32.3-32.1s14.4-32.1,32.3-32.1S176.3,126.3,176.3,144z"/>
<path id="rings" class="st6" d="M259.8,144c0,63.6-51.8,115.2-115.8,115.2
	S28.2,207.6,28.2,144S80.1,28.8,144,28.8S259.8,80.4,259.8,144z M144,36.5c-59.5,0-107.7,48-107.7,107.2S84.5,250.9,144,250.9
	s107.7-48,107.7-107.2S203.5,36.5,144,36.5z M144,44.7c-55,0-99.6,44.3-99.6,99s44.6,99,99.6,99s99.6-44.3,99.6-99
	S199,44.7,144,44.7z"/>
<path id="icon" class="st3" d="M143.6,155c0-0.3,0-0.5,0-0.8
	c0-8.7,0-17.5,0-26.2c0-1,0.1-1.1,1.1-1.4c3.1-0.7,6.2-1.4,9.3-2.1c0.1,0,0.2,0,0.4-0.1c0,0.2,0.1,0.4,0.1,0.6c0,1.9,0,3.7,0,5.6
	c0,0.6-0.2,0.7-0.7,0.9c-2.6,0.6-5.3,1.2-7.9,1.8c-0.2,0-0.3,0.1-0.5,0.2c0,0.2,0,0.4,0,0.6c0,7.9,0,15.7,0,23.6
	c0,1.9-0.8,3.4-2.3,4.5c-1.9,1.3-4,1.8-6.2,1.1c-3-0.9-4-4-2.1-6.6c1.9-2.6,5.8-3.4,8.6-1.9C143.3,154.8,143.4,154.9,143.6,155z"/>
</svg>
