<?xml version="1.0" encoding="utf-8"?>
<!-- Generator: Adobe Illustrator 27.5.0, SVG Export Plug-In . SVG Version: 6.00 Build 0)  -->
<svg version="1.1" id="darkbluedisk" xmlns="http://www.w3.org/2000/svg" xmlns:xlink="http://www.w3.org/1999/xlink" x="0px" y="0px"
	 viewBox="0 0 288 288" style="enable-background:new 0 0 288 288;" xml:space="preserve">
<style type="text/css">
	.st0{fill:#121A1B;}
	.st1{fill:#313133;}
	.st2{fill:#252427;}
	.st3{fill:#5050D3;}
	.st4{fill:#29219B;}
	.st5{fill:#CACCCE;}
	.st6{fill:none;stroke:#121A1B;stroke-width:1.41;stroke-miterlimit:10;}

#darkbluedisk:hover #rings {
  animation-name: vibrate;
  animation-duration: 0.5s;
  animation-timing-function: linear;
  animation-iteration-count: infinite;
}

@keyframes vibrate {
  0% {
    transform: translate(0, 0);
  }
  50% {
    transform: translate(-2px, 2px); 
  }
  100% {
    transform: translate(0, 0);
  }
}

#darkbluedisk:hover #base,
#darkbluedisk:hover #base2 {
  animation-name: colorChange;
  animation-duration: 2s;
  animation-timing-function: ease-out;
  animation-fill-mode: forwards;
}

#darkbluedisk #base1 {
  animation-name: flicker;
  animation-duration: 0.5s;
  animation-timing-function: linear;
  animation-iteration-count: infinite;
}

@keyframes colorChange {
  0% {
    fill: #121A1B; /* Initial color */
  }
  50% {
    fill: #29219B; /* Intermediate color */
  }
  100% {
    fill: #121A1B; /* Final color */
  }
}

@keyframes flicker {
  0% {
    opacity: 1;
  }
  50% {
    opacity: 0.5;
  }
  100% {
    opacity: 1;
  }
}



</style>
<path id="base" class="st0" d="M285.5,144c0,77.7-63.4,140.8-141.5,140.8
	c-78.1,0-141.5-63-141.5-140.8C2.5,66.3,65.9,3.2,144,3.2C222.1,3.2,285.5,66.3,285.5,144z"/>
<path id="base1" class="st1" d="M264.9,144c0,66.4-54.1,120.3-120.9,120.3
	S23.1,210.4,23.1,144S77.2,23.7,144,23.7S264.9,77.6,264.9,144z"/>
<path id="base2" class="st2" d="M236.7,144c0,50.9-41.5,92.2-92.7,92.2
	S51.3,195,51.3,144S92.8,51.8,144,51.8S236.7,93.1,236.7,144z"/>
<path id="cutshape" class="st3" d="M218,143.2c0,14.9-4.4,28.8-11.9,40.5
	c-6.1-18-31.9-31.5-62.7-31.5c-31.7,0-58.1,14.3-63.2,33.1c-8.2-12-13-26.5-13-42.1c0-15.1,4.5-29.2,12.3-41
	c2.6,20.5,30.2,36.6,63.9,36.6c32.6,0,59.6-15.1,63.6-34.7C213.9,115.4,218,128.8,218,143.2z"/>
<path id="ovals" class="st4" d="M206.9,104L206.9,104
	c-4,19.6-30.9,34.7-63.6,34.7c-33.7,0-61.3-16.1-63.9-36.6v0c13.4-20.5,36.7-34,63.1-34C169.8,68.2,193.7,82.5,206.9,104z
	 M143.3,152.1c-31.7,0-58.1,14.3-63.2,33.1c13.6,19.9,36.5,33,62.4,33c26.6,0,50.1-13.8,63.5-34.5
	C199.9,165.6,174.2,152.1,143.3,152.1z"/>
<path id="whitecircle" class="st5" d="M176.3,144c0,17.7-14.4,32.1-32.3,32.1
	c-17.8,0-32.3-14.4-32.3-32.1s14.4-32.1,32.3-32.1C161.8,111.9,176.3,126.3,176.3,144z"/>
<path id="rings" class="st6" d="M259.8,144c0,63.6-51.8,115.2-115.8,115.2
	S28.2,207.6,28.2,144S80.1,28.8,144,28.8S259.8,80.4,259.8,144z M144,36.5c-59.5,0-107.7,48-107.7,107.2S84.5,250.9,144,250.9
	s107.7-48,107.7-107.2S203.5,36.5,144,36.5z M144,44.7c-55,0-99.6,44.3-99.6,99s44.6,99,99.6,99s99.6-44.3,99.6-99
	S199,44.7,144,44.7z"/>
<path id="icon" class="st3" d="M147.2,155.2c0-0.3,0-0.5,0-0.8
	c0-9.6,0-19.3,0-28.9c0-0.3-0.1-0.6,0.1-0.8c0.2-0.3,0.5-0.6,0.8-0.6c0.4-0.1,0.7,0.3,0.7,0.7c0,0.2,0,0.5,0,0.7
	c0,10.9,0,21.8,0,32.7c0,1.1-0.3,2-1,2.9c-1.7,2.3-5.2,3.3-7.9,2.2c-2.6-1.1-3.5-3.8-2-6.1c1.8-2.7,5.8-3.8,8.7-2.3
	C146.9,155.1,147,155.1,147.2,155.2z M145.2,156.5c-2.2,0.2-4.1,1-5.7,2.6c-0.5,0.5-1,1.2-0.6,2c0.4,0.8,1.2,0.8,1.9,0.8
	c2.2-0.2,4.1-1,5.7-2.6c0.5-0.5,1-1.2,0.6-1.9C146.7,156.6,145.9,156.6,145.2,156.5z"/>
</svg>
