<?xml version="1.0" encoding="utf-8"?>
<!-- Generator: Adobe Illustrator 27.5.0, SVG Export Plug-In . SVG Version: 6.00 Build 0)  -->
<svg version="1.1" id="purpledisk" xmlns="http://www.w3.org/2000/svg" xmlns:xlink="http://www.w3.org/1999/xlink" x="0px" y="0px"
	 viewBox="0 0 288 288" style="enable-background:new 0 0 288 288;" xml:space="preserve">
<style type="text/css">
	.st0{fill:#121A1B;}
	.st1{fill:#313133;}
	.st2{fill:#252427;}
	.st3{fill:#3D1863;}
	.st4{fill:#572783;}
	.st5{fill:#CACCCE;}
	.st6{fill:none;stroke:#121A1B;stroke-width:1.41;stroke-miterlimit:10;}

	#purpledisk:hover #rings {
  animation-name: vibrate;
  animation-duration: 0.5s;
  animation-timing-function: linear;
  animation-iteration-count: infinite;
}

@keyframes vibrate {
  0% {
    transform: translate(0, 0);
  }
  50% {
    transform: translate(-2px, 2px); 
  }
  100% {
    transform: translate(0, 0);
  }
}

#purpledisk:hover #base,
#purpledisk:hover #base2 {
  animation-name: colorChange;
  animation-duration: 2s;
  animation-timing-function: ease-out;
  animation-fill-mode: forwards;
}

#purpledisk #base1 {
  animation-name: flicker;
  animation-duration: 0.5s;
  animation-timing-function: linear;
  animation-iteration-count: infinite;
}

@keyframes colorChange {
  0% {
    fill: #121A1B; /* Initial color */
  }
  50% {
    fill: #572783; /* Intermediate color */
  }
  100% {
    fill: #121A1B; /* Final color */
  }
}

@keyframes flicker {
  0% {
    opacity: 1;
  }
  50% {
    opacity: 0.5;
  }
  100% {
    opacity: 1;
  }
}

</style>
<path id="base" class="st0" d="M285.5,144c0,77.7-63.4,140.8-141.5,140.8
	c-78.1,0-141.5-63-141.5-140.8C2.5,66.3,65.9,3.2,144,3.2C222.1,3.2,285.5,66.3,285.5,144z"/>
<path id="base1" class="st1" d="M264.9,144c0,66.4-54.1,120.3-120.9,120.3
	S23.1,210.4,23.1,144S77.2,23.7,144,23.7S264.9,77.6,264.9,144z"/>
<path id="base2" class="st2" d="M236.7,144c0,50.9-41.5,92.2-92.7,92.2
	S51.3,195,51.3,144S92.8,51.8,144,51.8S236.7,93.1,236.7,144z"/>
<path id="cutshape" class="st3" d="M218,143.2c0,14.9-4.4,28.8-11.9,40.5
	c-6.1-18-31.9-31.5-62.7-31.5c-31.7,0-58.1,14.3-63.2,33.1c-8.2-12-13-26.5-13-42.1c0-15.1,4.5-29.2,12.3-41
	c2.6,20.5,30.2,36.6,63.9,36.6c32.6,0,59.6-15.1,63.6-34.7C213.9,115.4,218,128.8,218,143.2z"/>
<path id="ovals" class="st4" d="M206.9,104L206.9,104
	c-4,19.6-30.9,34.7-63.6,34.7c-33.7,0-61.3-16.1-63.9-36.6v0c13.4-20.5,36.7-34,63.1-34C169.8,68.2,193.7,82.5,206.9,104z
	 M143.3,152.1c-31.7,0-58.1,14.3-63.2,33.1c13.6,19.9,36.5,33,62.4,33c26.6,0,50.1-13.8,63.5-34.5
	C199.9,165.6,174.2,152.1,143.3,152.1z"/>
<path id="whitecircle" class="st5" d="M176.2,144c0,17.7-14.4,32.1-32.3,32.1
	c-17.8,0-32.3-14.4-32.3-32.1s14.4-32.1,32.3-32.1S176.2,126.3,176.2,144z"/>
<path id="rings" class="st6" d="M259.8,144c0,63.6-51.8,115.2-115.8,115.2
	S28.2,207.6,28.2,144S80,28.8,144,28.8S259.8,80.4,259.8,144z M144,36.5c-59.5,0-107.7,48-107.7,107.2S84.5,250.9,144,250.9
	s107.7-48,107.7-107.2S203.5,36.5,144,36.5z M144,44.7c-55,0-99.6,44.3-99.6,99s44.6,99,99.6,99s99.6-44.3,99.6-99
	S199,44.7,144,44.7z"/>
<path id="icons" class="st3" d="M143.3,140.6c3.8,0.4,5.6,3.6,5.7,6c0.1,3.6-1.4,5.4-5.6,6.4c0,1.5,0,2.9,0,4.4c0,1-0.2,2-0.7,2.9
	c-0.9,1.6-2.6,2.4-4.6,2.2c-1.9-0.2-3.4-1.4-3.8-3.2c-0.1-0.6-0.2-1.3-0.1-1.9c0.2-1.1,1.3-1.8,2.5-1.7c1.1,0.1,2,1,2.1,2.1
	c0.1,1.1-0.6,2.2-1.7,2.5c-0.2,0.1-0.4,0.1-0.7,0.2c0.4,0.9,1.7,1.5,3,1.2c1.6-0.3,2.9-1.8,3-3.5c0.1-1.7,0-3.4,0-5.1
	c-0.7-0.1-1.4-0.1-2.1-0.2c-3.7-0.8-6.4-3.9-6.6-7.7c-0.2-3.5,1.3-6.3,3.9-8.5c1.3-1.1,2.8-2,4.2-3c0.4-0.2,0.5-0.4,0.5-0.9
	c0-2.1,0-4.1,0.2-6.2c0.3-2.8,1.7-5.1,4.3-6.3c0.4-0.2,0.7-0.1,0.9,0.2c1.4,1.8,1.6,3.9,1.5,6.1c-0.3,4.2-2.2,7.5-5.8,9.8
	c-0.2,0.1-0.4,0.3-0.4,0.5C143.3,138.2,143.3,139.4,143.3,140.6z M142.4,137.1c-2,1.1-3.8,2.2-5.4,3.8c-3.2,3.1-1.9,7.9,0.7,9.9
	c1.4,1.1,2.9,1.5,4.7,1.5c0-2.8,0-5.5,0-8.2c-2.1,0.1-3.3,1.5-3,3.4c0.1,0.8,0.5,1.5,1.1,2c0.1,0.1,0.2,0.3,0.4,0.5
	c-0.2,0-0.3,0-0.3,0c-0.1,0-0.2-0.1-0.3-0.1c-1.2-0.8-2-1.9-2.1-3.4c-0.2-2.6,1.3-4.8,3.8-5.6c0.2-0.1,0.5-0.3,0.5-0.4
	C142.5,139.4,142.4,138.3,142.4,137.1z M143.3,132.9c1.9-1.2,3.6-2.5,4.7-4.4c0.8-1.4,0.9-2.9,0.6-4.4c-0.2-0.7-0.4-0.9-1.1-0.5
	c-0.4,0.2-0.9,0.5-1.2,0.9C143.8,126.7,143.1,129.6,143.3,132.9z M143.3,152.1c2-0.2,3.4-2.1,3.4-4.3c-0.1-2.1-1.5-3.7-3.4-3.7
	C143.3,146.8,143.3,149.5,143.3,152.1z"/>
</svg>
