<?xml version="1.0" encoding="utf-8"?>
<!-- Generator: Adobe Illustrator 27.5.0, SVG Export Plug-In . SVG Version: 6.00 Build 0)  -->
<svg version="1.1" id="reddisk" xmlns="http://www.w3.org/2000/svg" xmlns:xlink="http://www.w3.org/1999/xlink" x="0px" y="0px"
	 viewBox="0 0 288 288" style="enable-background:new 0 0 288 288;" xml:space="preserve">
<style type="text/css">
	.st0{fill:#121A1B;}
	.st1{fill:#313133;}
	.st2{fill:#252427;}
	.st3{fill:#96181F;}
	.st4{fill:#ED393B;}
	.st5{fill:#CACCCE;}
	.st6{fill:none;stroke:#121A1B;stroke-width:1.41;stroke-miterlimit:10;}

	#reddisk:hover #rings {
  animation-name: vibrate;
  animation-duration: 0.5s;
  animation-timing-function: linear;
  animation-iteration-count: infinite;
}

@keyframes vibrate {
  0% {
    transform: translate(0, 0);
  }
  50% {
    transform: translate(-2px, 2px); 
  }
  100% {
    transform: translate(0, 0);
  }
}

#reddisk:hover #base,
#reddisk:hover #base2 {
  animation-name: colorChange;
  animation-duration: 2s;
  animation-timing-function: ease-out;
  animation-fill-mode: forwards;
}

#reddisk #base1 {
  animation-name: flicker;
  animation-duration: 0.5s;
  animation-timing-function: linear;
  animation-iteration-count: infinite;
}

@keyframes colorChange {
  0% {
    fill: #121A1B; /* Initial color */
  }
  50% {
    fill: #ED393B; /* Intermediate color */
  }
  100% {
    fill: #121A1B; /* Final color */
  }
}

@keyframes flicker {
  0% {
    opacity: 1;
  }
  50% {
    opacity: 0.5;
  }
  100% {
    opacity: 1;
  }
}



</style>
<path id="base" class="st0" d="M285.1,143.6c0,77.7-63.4,140.8-141.5,140.8
	c-78.1,0-141.5-63-141.5-140.8C2.1,65.8,65.5,2.8,143.6,2.8C221.7,2.8,285.1,65.8,285.1,143.6z"/>
<path id="base1" class="st1" d="M264.5,143.6c0,66.4-54.1,120.3-120.9,120.3
	S22.7,210,22.7,143.6S76.9,23.3,143.6,23.3S264.5,77.2,264.5,143.6z"/>
<path id="base2" class="st2" d="M236.3,143.6c0,50.9-41.5,92.2-92.7,92.2
	s-92.7-41.3-92.7-92.2s41.5-92.2,92.7-92.2S236.3,92.6,236.3,143.6z"/>
<path id="cutshape" class="st3" d="M217.6,142.7c0,14.9-4.4,28.8-11.9,40.5
	c-6.1-18-31.9-31.5-62.7-31.5c-31.7,0-58.1,14.3-63.2,33.1c-8.2-12-13-26.5-13-42.1c0-15.1,4.5-29.2,12.3-41
	c2.6,20.5,30.2,36.6,63.9,36.6c32.6,0,59.6-15.1,63.6-34.7C213.5,115,217.6,128.4,217.6,142.7z"/>
<path id="ovals" class="st4" d="M206.5,103.6L206.5,103.6
	c-4,19.6-30.9,34.7-63.6,34.7c-33.7,0-61.3-16.1-63.9-36.6v0c13.4-20.5,36.7-34,63.1-34C169.4,67.7,193.3,82.1,206.5,103.6z
	 M143,151.7c-31.7,0-58.1,14.3-63.2,33.1c13.6,19.9,36.5,33,62.4,33c26.6,0,50.1-13.8,63.5-34.5C199.5,165.2,173.8,151.7,143,151.7z
	"/>
<path id="whitecircle" class="st5" d="M175.9,143.6
	c0,17.7-14.4,32.1-32.3,32.1c-17.8,0-32.3-14.4-32.3-32.1s14.4-32.1,32.3-32.1C161.4,111.5,175.9,125.9,175.9,143.6z"/>
<path id="rings" class="st6" d="M259.4,143.6c0,63.6-51.8,115.2-115.8,115.2
	S27.8,207.2,27.8,143.6S79.7,28.4,143.6,28.4S259.4,80,259.4,143.6z M143.6,36.1c-59.5,0-107.7,48-107.7,107.2
	s48.2,107.2,107.7,107.2s107.7-48,107.7-107.2S203.1,36.1,143.6,36.1z M143.6,44.2c-55,0-99.6,44.3-99.6,99s44.6,99,99.6,99
	s99.6-44.3,99.6-99S198.6,44.2,143.6,44.2z"/>
<path id="icon" class="st3" d="M143.4,152c0-0.4,0-0.6,0-0.9
	c0-9.6,0-19.2,0-28.7c0-0.3-0.1-0.6,0.1-0.8c0.2-0.3,0.5-0.6,0.7-0.6c0.3,0,0.8,0.4,0.8,0.6c0.3,3.1,2.2,5.1,4.5,7
	c0.8,0.7,1.6,1.5,2.4,2.2c2.2,2.2,2.8,4.8,2.1,7.8c-0.5,1.9-1.4,3.6-2.7,5.1c-0.3,0.4-0.7,0.6-1.1,0.3c-0.4-0.3-0.3-0.7-0.1-1.1
	c1-1.5,1.7-3.1,1.9-5c0.3-2.6-0.6-4.6-2.7-6c-1.3-0.9-2.7-1.5-4.3-1.9c0,0.3,0,0.5,0,0.8c0,7.9,0,15.8,0,23.7c0,2.8-1.3,4.6-3.9,5.6
	c-1.6,0.6-3.2,0.7-4.8,0.1c-2.7-1-3.7-3.8-2.2-6.2c1.7-2.7,5.8-3.8,8.6-2.3C143.1,151.8,143.2,151.8,143.4,152z"/>
</svg>
