<?xml version="1.0" encoding="utf-8"?>
<!-- Generator: Adobe Illustrator 27.5.0, SVG Export Plug-In . SVG Version: 6.00 Build 0)  -->
<svg version="1.1" id="yellowdisk" xmlns="http://www.w3.org/2000/svg" xmlns:xlink="http://www.w3.org/1999/xlink" x="0px" y="0px"
	 viewBox="0 0 288 288" style="enable-background:new 0 0 288 288;" xml:space="preserve">
<style type="text/css">
	.st0{fill:#121A1B;}
	.st1{fill:#313133;}
	.st2{fill:#252427;}
	.st3{fill:#BA941C;}
	.st4{fill:#FCD025;}
	.st5{fill:#CACCCE;}
	.st6{fill:none;stroke:#121A1B;stroke-width:1.41;stroke-miterlimit:10;}

	#yellowdisk:hover #rings {
  animation-name: vibrate;
  animation-duration: 0.5s;
  animation-timing-function: linear;
  animation-iteration-count: infinite;
}

@keyframes vibrate {
  0% {
    transform: translate(0, 0);
  }
  50% {
    transform: translate(-2px, 2px);
  }
  100% {
    transform: translate(0, 0);
  }
}

#yellowdisk:hover #base,
#yellowdisk:hover #base2 {
  animation-name: colorChange;
  animation-duration: 2s;
  animation-timing-function: ease-out;
  animation-fill-mode: forwards;
}

#yellowdisk #base1 {
  animation-name: flicker;
  animation-duration: 0.5s;
  animation-timing-function: linear;
  animation-iteration-count: infinite;
}

@keyframes colorChange {
  0% {
    fill: #121A1B; /* Initial color */
  }
  50% {
    fill: #FCD025 /* Intermediate color */
  }
  100% {
    fill: #121A1B; /* Final color */
  }
}

@keyframes flicker {
  0% {
    opacity: 1;
  }
  50% {
    opacity: 0.5;
  }
  100% {
    opacity: 1;
  }
}



</style>
<path id="base" class="st0" d="M284.8,143.8c0,77.9-63.4,141-141.6,141c-78.2,0-141.6-63.1-141.6-141C1.6,66,65,2.8,143.2,2.8
	C221.4,2.8,284.8,66,284.8,143.8z"/>
<path id="base1" class="st1" d="M264.2,143.8c0,66.5-54.2,120.5-121,120.5s-121-53.9-121-120.5s54.2-120.5,121-120.5
	S264.2,77.3,264.2,143.8z"/>
<path id="base2" class="st2" d="M236,143.8c0,51-41.6,92.4-92.8,92.4s-92.8-41.4-92.8-92.4s41.6-92.4,92.8-92.4S236,92.8,236,143.8z
	"/>
<path id="cutshape" class="st3" d="M217.2,143c0,14.9-4.4,28.9-11.9,40.6c-6.1-18-31.9-31.6-62.8-31.6c-31.8,0-58.1,14.3-63.3,33.2
	c-8.2-12-13-26.5-13-42.1c0-15.2,4.5-29.3,12.3-41.1c2.6,20.5,30.2,36.7,64,36.7c32.7,0,59.6-15.2,63.6-34.8
	C213.2,115.2,217.2,128.6,217.2,143z"/>
<path id="ovals" class="st4" d="M206.2,103.8L206.2,103.8c-4,19.6-31,34.8-63.6,34.8c-33.7,0-61.3-16.1-64-36.7v0
	c13.5-20.5,36.7-34.1,63.2-34.1C169,67.9,192.9,82.3,206.2,103.8z M141.7,152c-31.8,0-58.1,14.3-63.3,33.2
	c13.6,19.9,36.5,33,62.5,33c26.7,0,50.1-13.8,63.5-34.6C198.3,165.5,172.5,152,141.7,152z"/>
<path id="whitecircle" class="st5" d="M175.5,143.8c0,17.8-14.5,32.1-32.3,32.1s-32.3-14.4-32.3-32.1s14.5-32.1,32.3-32.1
	S175.5,126.1,175.5,143.8z"/>
<path id="rings" class="st6" d="M259.1,143.8c0,63.7-51.9,115.4-115.9,115.4S27.3,207.6,27.3,143.8S79.2,28.4,143.2,28.4
	S259.1,80.1,259.1,143.8z M143.2,36.2c-59.6,0-107.8,48.1-107.8,107.4s48.3,107.4,107.8,107.4S251,202.8,251,143.5
	S202.7,36.2,143.2,36.2z M143.2,44.3c-55,0-99.6,44.4-99.6,99.2s44.6,99.2,99.6,99.2s99.6-44.4,99.6-99.2S198.2,44.3,143.2,44.3z"/>
<path id="icon" class="st3" d="M141.3,152.2c0-0.3,0-0.5,0-0.8c0-9.6,0-19.3,0-28.9c0-0.3-0.1-0.6,0.1-0.8c0.2-0.3,0.5-0.6,0.8-0.6
	c0.4-0.1,0.7,0.2,0.7,0.7c0,2.7,1.6,4.6,3.5,6.3c1,0.9,2,1.8,3,2.7c2.7,2.6,3.2,5.6,2,9c-0.2,0.6-0.2,1.1,0,1.7
	c1,2.3,0.7,4.6-0.2,6.8c-0.5,1.2-1.3,2.3-2,3.4c-0.3,0.4-0.7,0.8-1.2,0.4c-0.5-0.4-0.3-0.8,0-1.2c1.1-1.7,1.8-3.6,1.9-5.7
	c0-1.7-0.6-3.2-1.8-4.4c-1.4-1.4-3.2-2.1-5.1-2.7c0,0.3,0,0.6,0,0.9c0,5.2,0,10.5,0,15.7c0,3.3-2,5.6-5.3,6.2
	c-1.4,0.2-2.7,0.1-4-0.5c-2.1-1.1-2.9-3.4-1.7-5.5c1.5-2.9,5.8-4.3,8.7-2.8C140.8,151.9,141,152.1,141.3,152.2z M139.4,153.5
	c-2.2,0.2-4.1,1-5.7,2.7c-0.5,0.5-0.9,1.1-0.6,1.9c0.4,0.8,1.1,0.8,1.9,0.8c2.2-0.1,4.2-1,5.7-2.6c0.5-0.5,1-1.1,0.6-1.9
	C141,153.5,140.2,153.6,139.4,153.5z M142.9,130.2c0,0.2,0,0.3,0.1,0.4c0.4,1.7,1.2,3.1,2.5,4.3c1.3,1.3,2.7,2.5,4.1,3.8
	c0,0,0.1,0,0.1,0c0.3-1.8,0.2-3.5-1-5C147.3,131.8,145.2,130.9,142.9,130.2z"/>
</svg>
